<svg width="161" height="161" viewBox="0 0 161 161" fill="none" xmlns="http://www.w3.org/2000/svg">
<rect width="161" height="161" rx="80.5" fill="#EADDFF"/>
<path fill-rule="evenodd" clip-rule="evenodd" d="M104.651 64.4C104.651 77.7377 93.8384 88.55 80.5007 88.55C67.1631 88.55 56.3507 77.7377 56.3507 64.4C56.3507 51.0623 67.1631 40.25 80.5007 40.25C93.8384 40.25 104.651 51.0623 104.651 64.4ZM96.6007 64.4C96.6007 73.2918 89.3925 80.5 80.5007 80.5C71.609 80.5 64.4007 73.2918 64.4007 64.4C64.4007 55.5082 71.609 48.3 80.5007 48.3C89.3925 48.3 96.6007 55.5082 96.6007 64.4Z" fill="#21005D"/>
<path d="M80.5007 100.625C54.4413 100.625 32.2381 116.034 23.7803 137.623C25.8407 139.669 28.0111 141.604 30.282 143.419C36.5801 123.598 56.3375 108.675 80.5007 108.675C104.664 108.675 124.421 123.598 130.72 143.419C132.99 141.604 135.161 139.669 137.221 137.623C128.763 116.034 106.56 100.625 80.5007 100.625Z" fill="#21005D"/>
</svg>
